<!DOCTYPE svg PUBLIC "-//W3C//DTD SVG 1.1//EN" "http://www.w3.org/Graphics/SVG/1.1/DTD/svg11.dtd">
<!-- Uploaded to: SVG Repo, www.svgrepo.com, Transformed by: SVG Repo Mixer Tools -->
<svg fill="#8da5f3" width="64px" height="64px" viewBox="0 0 32 32" xmlns="http://www.w3.org/2000/svg" stroke="#8da5f3">
<g id="SVGRepo_bgCarrier" stroke-width="0"/>
<g id="SVGRepo_tracerCarrier" stroke-linecap="round" stroke-linejoin="round"/>
<g id="SVGRepo_iconCarrier"> <title/> <g data-name="Layer 17" id="Layer_17"> <path d="M28.16,12.25l-11.5-10a1,1,0,0,0-1.32,0l-11.5,10A1,1,0,0,0,4.5,14h23a1,1,0,0,0,.66-1.75ZM7.17,12,16,4.33,24.83,12Z"/> <path d="M25,15H7a1,1,0,0,0-1,1V29a1,1,0,0,0,1,1h5a1,1,0,0,0,1-1V23h6v6a1,1,0,0,0,1,1h5a1,1,0,0,0,1-1V16A1,1,0,0,0,25,15ZM24,28H21V22a1,1,0,0,0-1-1H12a1,1,0,0,0-1,1v6H8V17H24Z"/> </g> </g>
</svg>